<svg width="144" height="158" viewBox="0 0 144 158" fill="none" xmlns="http://www.w3.org/2000/svg">
<path d="M122.511 76C122.511 76 150.511 57.8767 141.011 44.7877C131.511 31.6986 121.011 42.5 121.011 42.5C121.011 42.5 129.011 21.0925 114.011 15C99.0114 8.90753 90.5114 32 90.5114 32C90.5114 32 91.5114 3.00002 70.0114 2.50002C48.5114 2.00002 49.5114 32 49.5114 32C49.5114 32 43.5114 12 30.5114 15.5C17.5114 19 22.0114 39.7534 22.0114 39.7534C22.0114 39.7534 11.0114 32 4.5114 46.5C-1.9886 61 19.5114 76 19.5114 76H122.511Z" fill="#00FF37"/>
<path d="M25.5114 49C19.0114 33.5 19.0114 21 25.5114 17C32.0114 13 39.489 15.5125 42.0114 19M50.0114 35.5C50.0114 35.5 50.0114 2.5 69.5114 2.5C89.0114 2.5 90.0114 35.5 90.0114 35.5M99.5114 19C99.5114 19 104.511 12 116.011 17C127.511 22 118.511 49 118.511 49M11.5114 68.5C-1.43476 55.1872 0.0114012 44.5 13.0114 38.5M130.511 38.5C145.011 38.5 143.511 59 132.011 68.5" stroke="#007A01" stroke-width="5" stroke-linecap="round"/>
<path d="M69.5079 154.982C98.6396 155.376 124.758 114.988 124.758 84.5575C124.758 54.1271 89.6 45.4327 72.5222 44.998C55.4444 44.5633 16.2673 54.9966 15.7651 84.5576C15.2628 114.119 40.3763 154.588 69.5079 154.982Z" fill="#FF0000"/>
<path d="M72.5114 155.5C60.1071 155.332 47.2426 147.374 38.0114 136.5C78.9614 143.651 98.4182 131.088 126.511 85.5C124.011 116 101.351 155.892 72.5114 155.5Z" fill="#D5000B"/>
<path d="M127.011 84.5576C127.011 114.988 102.143 155.894 73.0114 155.5C43.8797 155.106 15.2625 114.119 15.7648 84.5576C16.2671 54.9966 55.9336 44.5653 73.0114 45C90.0892 45.4347 127.011 54.1272 127.011 84.5576Z" stroke="#69011A" stroke-width="5"/>
<path d="M48.6836 118.854C48.8573 119.839 47.8142 122.561 47.8142 122.561C47.8142 122.561 45.9897 120.852 45.7292 119.375C45.4687 117.897 45.8743 117.318 46.8591 117.145C47.8439 116.971 48.51 117.869 48.6836 118.854Z" stroke="#EFFF73" stroke-width="5"/>
<path d="M49.6685 118.68C50.0158 120.65 48.2281 124.62 48.2281 124.62C48.2281 124.62 47.1015 123.702 46.8177 123.244" stroke="#B7C741" stroke-width="3" stroke-linecap="round"/>
<path d="M99.3088 119.201C99.1351 120.186 97.2238 122.387 97.2238 122.387C97.2238 122.387 96.0939 120.157 96.3544 118.68C96.6148 117.203 97.1941 116.797 98.1789 116.971C99.1637 117.145 99.4824 118.216 99.3088 119.201Z" stroke="#EFFF73" stroke-width="5"/>
<path d="M100.294 119.375C99.9463 121.344 96.9084 124.464 96.9084 124.464C96.9084 124.464 96.1638 123.216 96.0537 122.689" stroke="#B7C741" stroke-width="3" stroke-linecap="round"/>
<path d="M51.0925 65.5355C50.3854 66.2426 47.557 66.9497 47.557 66.9497C47.557 66.9497 47.9105 64.4749 48.9712 63.4142C50.0319 62.3536 50.739 62.3536 51.4461 63.0607C52.1532 63.7678 51.7996 64.8284 51.0925 65.5355Z" stroke="#EFFF73" stroke-width="5"/>
<path d="M51.7996 66.2426C50.3854 67.6568 46.1074 68.47 46.1074 68.47C46.1074 68.47 46.2135 67.0205 46.4256 66.5255" stroke="#B7C741" stroke-width="3" stroke-linecap="round"/>
<path d="M98.5469 64.1213C99.254 64.8284 99.9611 67.6569 99.9611 67.6569C99.9611 67.6569 97.4863 67.3033 96.4256 66.2426C95.365 65.182 95.365 64.4749 96.0721 63.7678C96.7792 63.0607 97.8398 63.4142 98.5469 64.1213Z" stroke="#EFFF73" stroke-width="5"/>
<path d="M99.2541 63.4142C100.668 64.8284 101.481 69.1064 101.481 69.1064C101.481 69.1064 100.032 69.0004 99.5369 68.7882" stroke="#B7C741" stroke-width="3" stroke-linecap="round"/>
<path d="M37.5667 90.4506C37.2247 91.3902 34.9601 93.2264 34.9601 93.2264C34.9601 93.2264 34.2346 90.834 34.7477 89.4245C35.2607 88.015 35.9015 87.7161 36.8412 88.0581C37.7809 88.4002 37.9088 89.5109 37.5667 90.4506Z" stroke="#EFFF73" stroke-width="5"/>
<path d="M38.5064 90.7926C37.8224 92.672 34.2889 95.2169 34.2889 95.2169C34.2889 95.2169 33.7724 93.8583 33.7555 93.3201" stroke="#B7C741" stroke-width="3" stroke-linecap="round"/>
<path d="M74.0114 106C74.0114 107 72.5114 109.5 72.5114 109.5C72.5114 109.5 71.0114 107.5 71.0114 106C71.0114 104.5 71.5114 104 72.5114 104C73.5114 104 74.0114 105 74.0114 106Z" stroke="#EFFF73" stroke-width="5"/>
<path d="M75.0114 106C75.0114 108 72.5614 111.6 72.5614 111.6C72.5614 111.6 71.6114 110.5 71.4114 110" stroke="#B7C741" stroke-width="3" stroke-linecap="round"/>
<path d="M110.335 89.7665C110.677 90.7062 110.123 93.5685 110.123 93.5685C110.123 93.5685 108.029 92.2021 107.516 90.7926C107.003 89.3831 107.302 88.7422 108.242 88.4002C109.182 88.0582 109.993 88.8268 110.335 89.7665Z" stroke="#EFFF73" stroke-width="5"/>
<path d="M111.275 89.4245C111.959 91.3039 110.888 95.5247 110.888 95.5247C110.888 95.5247 109.619 94.816 109.26 94.4146" stroke="#B7C741" stroke-width="3" stroke-linecap="round"/>
<path d="M74.0114 138C74.0114 139 72.5114 141.5 72.5114 141.5C72.5114 141.5 71.0114 139.5 71.0114 138C71.0114 136.5 71.5114 136 72.5114 136C73.5114 136 74.0114 137 74.0114 138Z" stroke="#EFFF73" stroke-width="5"/>
<path d="M75.0114 138C75.0114 140 72.5614 143.6 72.5614 143.6C72.5614 143.6 71.6114 142.5 71.4114 142" stroke="#B7C741" stroke-width="3" stroke-linecap="round"/>
<path d="M75.0114 77C75.0114 78 73.5114 80.5 73.5114 80.5C73.5114 80.5 72.0114 78.5 72.0114 77C72.0114 75.5 72.5114 75 73.5114 75C74.5114 75 75.0114 76 75.0114 77Z" stroke="#EFFF73" stroke-width="5"/>
<path d="M76.0114 77C76.0114 79 73.5614 82.6 73.5614 82.6C73.5614 82.6 72.6114 81.5 72.4114 81" stroke="#B7C741" stroke-width="3" stroke-linecap="round"/>
</svg>
